# xmcd
#
# Track frame offsets:
#	150
#	12597
#	25725
#	39222
#	51897
#	65175
#	78147
#	90372
#	102072
#	114225
#	126747
#	136125
#	150747
#	164247
#	175122
#
# Disc length: 2529
#
# Revision: 3
# Processed by: cddbd v1.5.1PL0 Copyright (c) Steve Scherf et al.
# Submitted via: audiograbber 1.80
# Normalized: r1:DSETVAR1,TDELIM( - ),TSWAP
#
DISCID=be09df0f
DTITLE=Various Artist - Classic Rhythm and Blues Collection, 1964 - 1967, CD-1
DYEAR=1900
DGENRE=
TTITLE0=The Four Tops - I Can't Help Myself (Sugar Pie, Honeybunch)
TTITLE1=Percy Sledge - When A Man Loves A Woman
TTITLE2=Jimmy Ruffin - What Becomes Of The Brokenhearted
TTITLE3=The Supremes - You Can't Hurry Love
TTITLE4=The Miracles - The Tracks Of My Tears
TTITLE5=Fontella Bass - Rescue Me
TTITLE6=The Impressions - People Get Ready
TTITLE7=The Supremes - Where Did Our Love Go
TTITLE8=Martha and The Vendellas - Dancing In The Street
TTITLE9=The Temtations - My Girl
TTITLE10=James Brown - Papa's Got A Brand New Bag
TTITLE11=Otis Redding - I've Been Loving You too Long (To Stop Now)
TTITLE12=The Supremes - Back In My Arms Again
TTITLE13=The Temtations - Beauty Is Only Skin Deep
TTITLE14=Ramsey Lewis Trio - The "In" Crowd
EXTD=
EXTT0=
EXTT1=
EXTT2=
EXTT3=
EXTT4=
EXTT5=
EXTT6=
EXTT7=
EXTT8=
EXTT9=
EXTT10=
EXTT11=
EXTT12=
EXTT13=
EXTT14=
PLAYORDER=
